<svg xmlns="http://www.w3.org/2000/svg" xmlns:xlink="http://www.w3.org/1999/xlink" width="500" zoomAndPan="magnify" viewBox="0 0 375 374.999991" height="500" preserveAspectRatio="xMidYMid meet" version="1.0"><defs><clipPath id="84e82fccd4"><path d="M 37.5 34.910156 L 338 34.910156 L 338 335 L 37.5 335 Z M 37.5 34.910156 " clip-rule="nonzero"/></clipPath><clipPath id="9847f2e07f"><path d="M 120 159 L 177 159 L 177 216 L 120 216 Z M 120 159 " clip-rule="nonzero"/></clipPath><clipPath id="603f723bde"><path d="M 160.773438 42.972656 L 304.65625 95.253906 L 215.300781 341.164062 L 71.417969 288.882812 Z M 160.773438 42.972656 " clip-rule="nonzero"/></clipPath><clipPath id="60141779aa"><path d="M 160.773438 42.972656 L 304.65625 95.253906 L 215.300781 341.164062 L 71.417969 288.882812 Z M 160.773438 42.972656 " clip-rule="nonzero"/></clipPath><clipPath id="77dfefbd2a"><path d="M 217 86 L 274 86 L 274 143 L 217 143 Z M 217 86 " clip-rule="nonzero"/></clipPath><clipPath id="e54f6c8e7f"><path d="M 160.773438 42.972656 L 304.65625 95.253906 L 215.300781 341.164062 L 71.417969 288.882812 Z M 160.773438 42.972656 " clip-rule="nonzero"/></clipPath><clipPath id="7e1b8560d7"><path d="M 160.773438 42.972656 L 304.65625 95.253906 L 215.300781 341.164062 L 71.417969 288.882812 Z M 160.773438 42.972656 " clip-rule="nonzero"/></clipPath><clipPath id="f1c0df08d7"><path d="M 199 167 L 256 167 L 256 225 L 199 225 Z M 199 167 " clip-rule="nonzero"/></clipPath><clipPath id="0bff3cc679"><path d="M 160.773438 42.972656 L 304.65625 95.253906 L 215.300781 341.164062 L 71.417969 288.882812 Z M 160.773438 42.972656 " clip-rule="nonzero"/></clipPath><clipPath id="7a91964890"><path d="M 160.773438 42.972656 L 304.65625 95.253906 L 215.300781 341.164062 L 71.417969 288.882812 Z M 160.773438 42.972656 " clip-rule="nonzero"/></clipPath><clipPath id="a9c74d5d60"><path d="M 109 246 L 166 246 L 166 303 L 109 303 Z M 109 246 " clip-rule="nonzero"/></clipPath><clipPath id="9c9594c29c"><path d="M 160.773438 42.972656 L 304.65625 95.253906 L 215.300781 341.164062 L 71.417969 288.882812 Z M 160.773438 42.972656 " clip-rule="nonzero"/></clipPath><clipPath id="167b4ff79e"><path d="M 160.773438 42.972656 L 304.65625 95.253906 L 215.300781 341.164062 L 71.417969 288.882812 Z M 160.773438 42.972656 " clip-rule="nonzero"/></clipPath></defs><g clip-path="url(#84e82fccd4)"><path fill="#039f3d" d="M 317.003906 130.347656 L 242.015625 130.347656 L 242.015625 55.359375 C 242.015625 54.691406 241.984375 54.023438 241.917969 53.355469 C 241.851562 52.6875 241.753906 52.027344 241.625 51.371094 C 241.492188 50.714844 241.332031 50.0625 241.136719 49.421875 C 240.941406 48.78125 240.714844 48.152344 240.460938 47.535156 C 240.203125 46.914062 239.917969 46.308594 239.601562 45.71875 C 239.285156 45.128906 238.941406 44.554688 238.570312 43.996094 C 238.199219 43.441406 237.800781 42.902344 237.375 42.386719 C 236.949219 41.867188 236.5 41.371094 236.027344 40.898438 C 235.550781 40.425781 235.058594 39.976562 234.539062 39.550781 C 234.019531 39.125 233.484375 38.726562 232.925781 38.355469 C 232.371094 37.984375 231.796875 37.640625 231.207031 37.324219 C 230.613281 37.007812 230.011719 36.722656 229.390625 36.464844 C 228.773438 36.207031 228.140625 35.984375 227.5 35.789062 C 226.859375 35.59375 226.210938 35.433594 225.554688 35.300781 C 224.898438 35.171875 224.234375 35.074219 223.570312 35.007812 C 222.902344 34.941406 222.234375 34.910156 221.566406 34.910156 L 153.394531 34.910156 C 152.722656 34.910156 152.054688 34.941406 151.386719 35.007812 C 150.722656 35.074219 150.058594 35.171875 149.402344 35.300781 C 148.746094 35.433594 148.097656 35.59375 147.457031 35.789062 C 146.816406 35.984375 146.183594 36.207031 145.566406 36.464844 C 144.949219 36.722656 144.34375 37.007812 143.75 37.324219 C 143.160156 37.640625 142.585938 37.984375 142.03125 38.355469 C 141.472656 38.726562 140.9375 39.125 140.417969 39.550781 C 139.902344 39.976562 139.40625 40.425781 138.929688 40.898438 C 138.457031 41.371094 138.007812 41.867188 137.582031 42.386719 C 137.160156 42.902344 136.761719 43.441406 136.386719 43.996094 C 136.015625 44.554688 135.671875 45.128906 135.355469 45.71875 C 135.039062 46.308594 134.753906 46.914062 134.496094 47.535156 C 134.242188 48.152344 134.015625 48.78125 133.820312 49.421875 C 133.628906 50.0625 133.464844 50.714844 133.332031 51.371094 C 133.203125 52.027344 133.105469 52.6875 133.039062 53.355469 C 132.972656 54.023438 132.941406 54.691406 132.941406 55.359375 L 132.941406 130.347656 L 57.953125 130.347656 C 57.28125 130.347656 56.613281 130.382812 55.945312 130.449219 C 55.28125 130.511719 54.617188 130.613281 53.960938 130.742188 C 53.304688 130.871094 52.65625 131.035156 52.015625 131.230469 C 51.375 131.425781 50.742188 131.648438 50.125 131.90625 C 49.507812 132.164062 48.902344 132.449219 48.3125 132.765625 C 47.71875 133.078125 47.144531 133.425781 46.589844 133.796875 C 46.03125 134.167969 45.496094 134.566406 44.976562 134.992188 C 44.460938 135.417969 43.964844 135.867188 43.488281 136.339844 C 43.015625 136.8125 42.566406 137.308594 42.140625 137.828125 C 41.71875 138.34375 41.320312 138.882812 40.945312 139.4375 C 40.574219 139.996094 40.230469 140.570312 39.914062 141.160156 C 39.597656 141.75 39.3125 142.355469 39.058594 142.972656 C 38.800781 143.59375 38.574219 144.222656 38.378906 144.863281 C 38.1875 145.503906 38.023438 146.152344 37.894531 146.8125 C 37.761719 147.46875 37.664062 148.128906 37.597656 148.796875 C 37.53125 149.464844 37.5 150.132812 37.5 150.800781 L 37.5 218.972656 C 37.5 219.644531 37.53125 220.3125 37.597656 220.976562 C 37.664062 221.644531 37.761719 222.304688 37.894531 222.964844 C 38.023438 223.621094 38.1875 224.269531 38.378906 224.910156 C 38.574219 225.550781 38.800781 226.179688 39.058594 226.800781 C 39.3125 227.417969 39.597656 228.023438 39.914062 228.613281 C 40.230469 229.203125 40.574219 229.777344 40.945312 230.335938 C 41.320312 230.890625 41.71875 231.429688 42.140625 231.949219 C 42.566406 232.464844 43.015625 232.960938 43.488281 233.433594 C 43.964844 233.910156 44.460938 234.359375 44.976562 234.78125 C 45.496094 235.207031 46.03125 235.605469 46.589844 235.976562 C 47.144531 236.351562 47.71875 236.695312 48.3125 237.011719 C 48.902344 237.324219 49.507812 237.613281 50.125 237.867188 C 50.742188 238.125 51.375 238.351562 52.015625 238.542969 C 52.65625 238.738281 53.304688 238.902344 53.960938 239.03125 C 54.617188 239.164062 55.28125 239.261719 55.945312 239.328125 C 56.613281 239.390625 57.28125 239.425781 57.953125 239.425781 L 132.941406 239.425781 L 132.941406 314.414062 C 132.941406 315.085938 132.972656 315.753906 133.039062 316.417969 C 133.105469 317.085938 133.203125 317.746094 133.332031 318.402344 C 133.464844 319.0625 133.628906 319.710938 133.820312 320.351562 C 134.015625 320.992188 134.242188 321.621094 134.496094 322.242188 C 134.753906 322.859375 135.039062 323.464844 135.355469 324.054688 C 135.671875 324.644531 136.015625 325.21875 136.386719 325.777344 C 136.761719 326.332031 137.160156 326.871094 137.582031 327.386719 C 138.007812 327.90625 138.457031 328.402344 138.929688 328.875 C 139.40625 329.347656 139.902344 329.796875 140.417969 330.222656 C 140.9375 330.648438 141.472656 331.046875 142.03125 331.417969 C 142.585938 331.792969 143.160156 332.136719 143.75 332.449219 C 144.34375 332.765625 144.949219 333.050781 145.566406 333.308594 C 146.183594 333.566406 146.816406 333.789062 147.457031 333.984375 C 148.097656 334.179688 148.746094 334.34375 149.402344 334.472656 C 150.058594 334.601562 150.722656 334.703125 151.386719 334.765625 C 152.054688 334.832031 152.722656 334.867188 153.394531 334.867188 L 221.566406 334.867188 C 222.234375 334.867188 222.902344 334.832031 223.570312 334.765625 C 224.234375 334.703125 224.898438 334.601562 225.554688 334.472656 C 226.210938 334.34375 226.859375 334.179688 227.5 333.984375 C 228.140625 333.789062 228.773438 333.566406 229.390625 333.308594 C 230.011719 333.050781 230.613281 332.765625 231.207031 332.449219 C 231.796875 332.136719 232.371094 331.792969 232.925781 331.417969 C 233.484375 331.046875 234.019531 330.648438 234.539062 330.222656 C 235.058594 329.796875 235.550781 329.347656 236.027344 328.875 C 236.5 328.402344 236.949219 327.90625 237.375 327.386719 C 237.800781 326.871094 238.199219 326.332031 238.570312 325.777344 C 238.941406 325.21875 239.285156 324.644531 239.601562 324.054688 C 239.917969 323.464844 240.203125 322.859375 240.460938 322.242188 C 240.714844 321.621094 240.941406 320.992188 241.136719 320.351562 C 241.332031 319.710938 241.492188 319.0625 241.625 318.402344 C 241.753906 317.746094 241.851562 317.085938 241.917969 316.417969 C 241.984375 315.753906 242.015625 315.085938 242.015625 314.414062 L 242.015625 239.425781 L 317.003906 239.425781 C 317.675781 239.425781 318.34375 239.390625 319.011719 239.328125 C 319.675781 239.261719 320.339844 239.164062 320.996094 239.03125 C 321.652344 238.902344 322.300781 238.738281 322.941406 238.542969 C 323.582031 238.351562 324.214844 238.125 324.832031 237.867188 C 325.449219 237.613281 326.054688 237.324219 326.648438 237.011719 C 327.238281 236.695312 327.8125 236.351562 328.367188 235.976562 C 328.925781 235.605469 329.460938 235.207031 329.980469 234.78125 C 330.496094 234.359375 330.992188 233.910156 331.46875 233.433594 C 331.941406 232.960938 332.390625 232.464844 332.816406 231.949219 C 333.238281 231.429688 333.636719 230.890625 334.011719 230.335938 C 334.382812 229.777344 334.726562 229.203125 335.042969 228.613281 C 335.359375 228.023438 335.644531 227.417969 335.902344 226.800781 C 336.15625 226.179688 336.382812 225.550781 336.578125 224.910156 C 336.769531 224.269531 336.933594 223.621094 337.0625 222.964844 C 337.195312 222.304688 337.292969 221.644531 337.359375 220.976562 C 337.425781 220.3125 337.457031 219.644531 337.457031 218.972656 L 337.457031 150.800781 C 337.457031 150.132812 337.425781 149.464844 337.359375 148.796875 C 337.292969 148.128906 337.195312 147.46875 337.0625 146.8125 C 336.933594 146.152344 336.769531 145.503906 336.578125 144.863281 C 336.382812 144.222656 336.15625 143.59375 335.902344 142.972656 C 335.644531 142.355469 335.359375 141.75 335.042969 141.160156 C 334.726562 140.570312 334.382812 139.996094 334.011719 139.4375 C 333.636719 138.882812 333.238281 138.34375 332.816406 137.828125 C 332.390625 137.308594 331.941406 136.8125 331.46875 136.339844 C 330.992188 135.867188 330.496094 135.417969 329.980469 134.992188 C 329.460938 134.566406 328.925781 134.167969 328.367188 133.796875 C 327.8125 133.425781 327.238281 133.078125 326.648438 132.765625 C 326.054688 132.449219 325.449219 132.164062 324.832031 131.90625 C 324.214844 131.648438 323.582031 131.425781 322.941406 131.230469 C 322.300781 131.035156 321.652344 130.871094 320.996094 130.742188 C 320.339844 130.613281 319.675781 130.511719 319.011719 130.449219 C 318.34375 130.382812 317.675781 130.347656 317.003906 130.347656 Z M 317.003906 130.347656 " fill-opacity="1" fill-rule="nonzero"/></g><g clip-path="url(#9847f2e07f)"><g clip-path="url(#603f723bde)"><g clip-path="url(#60141779aa)"><path fill="#06722e" d="M 174.855469 175.042969 C 174.777344 174.957031 174.695312 174.875 174.613281 174.796875 C 170.9375 171.898438 165.558594 173.304688 162.0625 175.9375 C 158.753906 178.175781 156.105469 182.847656 158.296875 186.628906 C 158.621094 187.175781 159.09375 187.617188 159.621094 187.960938 C 164.367188 190.636719 170.527344 188.226562 173.859375 184.25 C 176.1875 181.875 177.234375 177.636719 174.855469 175.042969 Z M 161.675781 160.613281 C 159.710938 158.523438 156.023438 158.828125 153.652344 160.335938 C 148.917969 163.28125 145.46875 169.667969 147.929688 175.03125 C 148.195312 175.503906 148.550781 175.917969 148.96875 176.261719 C 151.992188 178.671875 156.300781 176.988281 158.804688 174.535156 C 162.171875 171.371094 164.582031 166.046875 162.402344 161.660156 C 162.199219 161.257812 161.957031 160.914062 161.675781 160.613281 Z M 171.378906 194.894531 C 167.851562 191.398438 161.84375 192.210938 158.023438 194.972656 C 155.066406 196.738281 152.875 201.078125 155.207031 204.089844 C 158.789062 208 165.484375 206.863281 169.273438 203.679688 C 171.9375 201.75 173.632812 197.6875 171.378906 194.894531 Z M 141.632812 163.28125 C 140.242188 161.695312 137.902344 161.003906 135.820312 161.9375 C 130.253906 164.449219 127.214844 172.113281 130.351562 177.460938 C 131.714844 179.644531 134.671875 179.988281 136.863281 178.871094 C 141.542969 176.476562 144.125 170.5 142.757812 165.507812 C 142.578125 164.660156 142.175781 163.902344 141.632812 163.28125 Z M 148.660156 186.808594 C 145.898438 183.734375 141.511719 182.019531 137.363281 182.136719 C 132.679688 182.441406 127.894531 183.542969 123.796875 185.957031 C 120.546875 187.355469 119.363281 191.832031 121.703125 194.484375 C 124.449219 197.738281 129.09375 198.488281 132.078125 201.496094 C 134.882812 203.800781 135.613281 207.457031 136.835938 210.6875 C 137.777344 213.53125 140.648438 216.058594 143.820312 215.105469 C 146.835938 213.890625 148.183594 210.503906 149.3125 207.691406 C 150.773438 202.710938 152.269531 197.429688 151.324219 192.242188 C 150.96875 190.140625 150.007812 188.3125 148.660156 186.808594 Z M 148.660156 186.808594 " fill-opacity="1" fill-rule="nonzero"/></g></g></g><g clip-path="url(#77dfefbd2a)"><g clip-path="url(#e54f6c8e7f)"><g clip-path="url(#7e1b8560d7)"><path fill="#06722e" d="M 272.070312 102.488281 C 271.996094 102.402344 271.914062 102.320312 271.828125 102.238281 C 268.15625 99.339844 262.777344 100.746094 259.28125 103.378906 C 255.972656 105.617188 253.324219 110.289062 255.515625 114.074219 C 255.839844 114.617188 256.308594 115.0625 256.839844 115.402344 C 261.582031 118.078125 267.742188 115.667969 271.074219 111.691406 C 273.402344 109.320312 274.449219 105.082031 272.070312 102.488281 Z M 258.894531 88.058594 C 256.929688 85.96875 253.242188 86.269531 250.871094 87.777344 C 246.136719 90.726562 242.6875 97.113281 245.148438 102.472656 C 245.414062 102.945312 245.769531 103.363281 246.1875 103.703125 C 249.207031 106.117188 253.519531 104.429688 256.023438 101.976562 C 259.390625 98.8125 261.800781 93.492188 259.617188 89.101562 C 259.417969 88.703125 259.171875 88.355469 258.894531 88.058594 Z M 268.597656 122.339844 C 265.070312 118.84375 259.0625 119.652344 255.242188 122.417969 C 252.28125 124.183594 250.09375 128.519531 252.425781 131.535156 C 256.007812 135.441406 262.703125 134.308594 266.492188 131.125 C 269.15625 129.195312 270.851562 125.132812 268.597656 122.339844 Z M 238.851562 90.722656 C 237.457031 89.140625 235.121094 88.445312 233.039062 89.382812 C 227.472656 91.890625 224.433594 99.558594 227.570312 104.902344 C 228.929688 107.085938 231.890625 107.429688 234.082031 106.316406 C 238.761719 103.917969 241.339844 97.945312 239.976562 92.953125 C 239.796875 92.105469 239.394531 91.34375 238.851562 90.722656 Z M 245.875 114.253906 C 243.117188 111.175781 238.726562 109.464844 234.578125 109.582031 C 229.898438 109.886719 225.113281 110.984375 221.015625 113.402344 C 217.761719 114.800781 216.582031 119.277344 218.921875 121.929688 C 221.664062 125.179688 226.3125 125.929688 229.292969 128.9375 C 232.101562 131.242188 232.828125 134.902344 234.054688 138.132812 C 234.996094 140.976562 237.863281 143.503906 241.035156 142.550781 C 244.054688 141.332031 245.402344 137.949219 246.53125 135.136719 C 247.992188 130.152344 249.488281 124.875 248.542969 119.683594 C 248.1875 117.585938 247.226562 115.757812 245.875 114.253906 Z M 245.875 114.253906 " fill-opacity="1" fill-rule="nonzero"/></g></g></g><g clip-path="url(#f1c0df08d7)"><g clip-path="url(#0bff3cc679)"><g clip-path="url(#7a91964890)"><path fill="#06722e" d="M 254.140625 183.84375 C 254.0625 183.761719 253.980469 183.679688 253.898438 183.597656 C 250.222656 180.699219 244.84375 182.105469 241.347656 184.738281 C 238.039062 186.976562 235.390625 191.648438 237.582031 195.433594 C 237.90625 195.976562 238.378906 196.421875 238.90625 196.761719 C 243.652344 199.4375 249.8125 197.027344 253.144531 193.050781 C 255.472656 190.679688 256.519531 186.4375 254.140625 183.84375 Z M 240.960938 169.417969 C 238.996094 167.328125 235.308594 167.628906 232.941406 169.136719 C 228.203125 172.085938 224.753906 178.472656 227.214844 183.832031 C 227.480469 184.304688 227.835938 184.71875 228.253906 185.0625 C 231.273438 187.476562 235.585938 185.789062 238.089844 183.335938 C 241.460938 180.171875 243.867188 174.851562 241.6875 170.460938 C 241.484375 170.0625 241.242188 169.714844 240.960938 169.417969 Z M 250.667969 203.699219 C 247.136719 200.203125 241.128906 201.011719 237.308594 203.777344 C 234.351562 205.539062 232.160156 209.878906 234.492188 212.894531 C 238.074219 216.800781 244.773438 215.667969 248.558594 212.484375 C 251.222656 210.550781 252.917969 206.488281 250.667969 203.699219 Z M 220.917969 172.082031 C 219.527344 170.496094 217.1875 169.804688 215.105469 170.742188 C 209.539062 173.25 206.503906 180.917969 209.640625 186.261719 C 211 188.445312 213.957031 188.789062 216.148438 187.675781 C 220.828125 185.277344 223.410156 179.300781 222.046875 174.3125 C 221.863281 173.460938 221.460938 172.703125 220.917969 172.082031 Z M 227.945312 195.613281 C 225.183594 192.535156 220.796875 190.824219 216.648438 190.9375 C 211.964844 191.246094 207.179688 192.34375 203.085938 194.761719 C 199.832031 196.160156 198.652344 200.636719 200.988281 203.285156 C 203.734375 206.539062 208.378906 207.289062 211.363281 210.296875 C 214.167969 212.601562 214.894531 216.261719 216.121094 219.492188 C 217.0625 222.335938 219.933594 224.859375 223.105469 223.90625 C 226.121094 222.691406 227.46875 219.308594 228.597656 216.496094 C 230.058594 211.511719 231.554688 206.234375 230.609375 201.042969 C 230.253906 198.945312 229.292969 197.113281 227.945312 195.613281 Z M 227.945312 195.613281 " fill-opacity="1" fill-rule="nonzero"/></g></g></g><g clip-path="url(#a9c74d5d60)"><g clip-path="url(#9c9594c29c)"><g clip-path="url(#167b4ff79e)"><path fill="#06722e" d="M 164.074219 262.679688 C 164 262.59375 163.917969 262.511719 163.832031 262.429688 C 160.160156 259.53125 154.78125 260.9375 151.285156 263.574219 C 147.972656 265.808594 145.324219 270.480469 147.519531 274.265625 C 147.84375 274.808594 148.3125 275.253906 148.84375 275.597656 C 153.585938 278.269531 159.746094 275.859375 163.078125 271.882812 C 165.40625 269.511719 166.453125 265.273438 164.074219 262.679688 Z M 150.894531 248.25 C 148.933594 246.160156 145.246094 246.460938 142.875 247.972656 C 138.140625 250.917969 134.6875 257.304688 137.152344 262.667969 C 137.417969 263.136719 137.773438 263.554688 138.191406 263.894531 C 141.210938 266.308594 145.523438 264.621094 148.027344 262.167969 C 151.394531 259.003906 153.804688 253.683594 151.621094 249.292969 C 151.421875 248.894531 151.175781 248.546875 150.894531 248.25 Z M 160.601562 282.53125 C 157.074219 279.035156 151.0625 279.847656 147.246094 282.609375 C 144.285156 284.375 142.097656 288.710938 144.429688 291.726562 C 148.011719 295.636719 154.707031 294.5 158.496094 291.316406 C 161.160156 289.386719 162.855469 285.324219 160.601562 282.53125 Z M 130.855469 250.917969 C 129.460938 249.332031 127.125 248.636719 125.039062 249.574219 C 119.472656 252.082031 116.4375 259.75 119.574219 265.09375 C 120.933594 267.277344 123.890625 267.621094 126.085938 266.507812 C 130.765625 264.113281 133.34375 258.136719 131.980469 253.144531 C 131.796875 252.296875 131.398438 251.535156 130.855469 250.917969 Z M 137.878906 274.445312 C 135.117188 271.367188 130.730469 269.65625 126.582031 269.773438 C 121.898438 270.078125 117.113281 271.175781 113.019531 273.59375 C 109.765625 274.992188 108.585938 279.46875 110.925781 282.121094 C 113.667969 285.371094 118.316406 286.121094 121.296875 289.128906 C 124.101562 291.433594 124.832031 295.09375 126.054688 298.324219 C 127 301.167969 129.867188 303.695312 133.039062 302.742188 C 136.054688 301.523438 137.40625 298.140625 138.535156 295.328125 C 139.992188 290.34375 141.488281 285.066406 140.542969 279.878906 C 140.191406 277.777344 139.230469 275.949219 137.878906 274.445312 Z M 137.878906 274.445312 " fill-opacity="1" fill-rule="nonzero"/></g></g></g></svg>