<svg xmlns="http://www.w3.org/2000/svg" xmlns:xlink="http://www.w3.org/1999/xlink" width="500" zoomAndPan="magnify" viewBox="0 0 375 374.999991" height="500" preserveAspectRatio="xMidYMid meet" version="1.0"><defs><g/><clipPath id="e51a0a78b3"><path d="M 12.515625 149.09375 L 93.515625 149.09375 L 93.515625 230 L 12.515625 230 Z M 12.515625 149.09375 " clip-rule="nonzero"/></clipPath><clipPath id="1ee64b6de5"><path d="M 34 182 L 50 182 L 50 198 L 34 198 Z M 34 182 " clip-rule="nonzero"/></clipPath><clipPath id="ced9429d26"><path d="M 45.730469 151.269531 L 84.5 165.355469 L 60.421875 231.617188 L 21.652344 217.53125 Z M 45.730469 151.269531 " clip-rule="nonzero"/></clipPath><clipPath id="b3f38ef79e"><path d="M 45.730469 151.269531 L 84.5 165.355469 L 60.421875 231.617188 L 21.652344 217.53125 Z M 45.730469 151.269531 " clip-rule="nonzero"/></clipPath><clipPath id="36fc0aa257"><path d="M 61 163 L 77 163 L 77 179 L 61 179 Z M 61 163 " clip-rule="nonzero"/></clipPath><clipPath id="a6826d2cd3"><path d="M 45.730469 151.269531 L 84.5 165.355469 L 60.421875 231.617188 L 21.652344 217.53125 Z M 45.730469 151.269531 " clip-rule="nonzero"/></clipPath><clipPath id="7e8c8d1a6c"><path d="M 45.730469 151.269531 L 84.5 165.355469 L 60.421875 231.617188 L 21.652344 217.53125 Z M 45.730469 151.269531 " clip-rule="nonzero"/></clipPath><clipPath id="5a42f8c9da"><path d="M 56 184 L 72 184 L 72 201 L 56 201 Z M 56 184 " clip-rule="nonzero"/></clipPath><clipPath id="9c929ac04e"><path d="M 45.730469 151.269531 L 84.5 165.355469 L 60.421875 231.617188 L 21.652344 217.53125 Z M 45.730469 151.269531 " clip-rule="nonzero"/></clipPath><clipPath id="615dac9186"><path d="M 45.730469 151.269531 L 84.5 165.355469 L 60.421875 231.617188 L 21.652344 217.53125 Z M 45.730469 151.269531 " clip-rule="nonzero"/></clipPath><clipPath id="242255bce5"><path d="M 31 206 L 47 206 L 47 222 L 31 222 Z M 31 206 " clip-rule="nonzero"/></clipPath><clipPath id="c09a6a3b58"><path d="M 45.730469 151.269531 L 84.5 165.355469 L 60.421875 231.617188 L 21.652344 217.53125 Z M 45.730469 151.269531 " clip-rule="nonzero"/></clipPath><clipPath id="f023c825af"><path d="M 45.730469 151.269531 L 84.5 165.355469 L 60.421875 231.617188 L 21.652344 217.53125 Z M 45.730469 151.269531 " clip-rule="nonzero"/></clipPath></defs><g clip-path="url(#e51a0a78b3)"><path fill="#039f3d" d="M 87.828125 174.8125 L 67.621094 174.8125 L 67.621094 154.605469 C 67.621094 154.246094 67.585938 153.886719 67.515625 153.53125 C 67.445312 153.175781 67.339844 152.832031 67.203125 152.496094 C 67.0625 152.164062 66.894531 151.84375 66.691406 151.542969 C 66.492188 151.242188 66.261719 150.964844 66.007812 150.710938 C 65.75 150.453125 65.472656 150.226562 65.171875 150.023438 C 64.871094 149.824219 64.554688 149.652344 64.21875 149.515625 C 63.886719 149.375 63.539062 149.273438 63.1875 149.203125 C 62.832031 149.128906 62.472656 149.09375 62.109375 149.09375 L 43.742188 149.09375 C 43.378906 149.09375 43.019531 149.128906 42.667969 149.203125 C 42.3125 149.273438 41.96875 149.375 41.632812 149.515625 C 41.296875 149.652344 40.980469 149.824219 40.679688 150.023438 C 40.378906 150.226562 40.101562 150.453125 39.84375 150.710938 C 39.589844 150.964844 39.359375 151.242188 39.160156 151.542969 C 38.957031 151.84375 38.789062 152.164062 38.648438 152.496094 C 38.511719 152.832031 38.40625 153.175781 38.335938 153.53125 C 38.265625 153.886719 38.230469 154.246094 38.230469 154.605469 L 38.230469 174.8125 L 18.023438 174.8125 C 17.664062 174.8125 17.304688 174.847656 16.949219 174.917969 C 16.59375 174.988281 16.25 175.09375 15.914062 175.230469 C 15.582031 175.371094 15.265625 175.539062 14.964844 175.742188 C 14.664062 175.941406 14.382812 176.171875 14.128906 176.425781 C 13.871094 176.683594 13.644531 176.960938 13.441406 177.261719 C 13.242188 177.5625 13.070312 177.878906 12.933594 178.214844 C 12.796875 178.546875 12.691406 178.894531 12.621094 179.246094 C 12.550781 179.601562 12.515625 179.960938 12.515625 180.324219 L 12.515625 198.691406 C 12.515625 199.054688 12.550781 199.414062 12.621094 199.765625 C 12.691406 200.121094 12.796875 200.464844 12.933594 200.800781 C 13.070312 201.136719 13.242188 201.453125 13.441406 201.753906 C 13.644531 202.054688 13.871094 202.332031 14.128906 202.589844 C 14.382812 202.84375 14.664062 203.074219 14.964844 203.273438 C 15.265625 203.476562 15.582031 203.644531 15.914062 203.785156 C 16.25 203.921875 16.59375 204.027344 16.949219 204.097656 C 17.304688 204.167969 17.664062 204.203125 18.023438 204.203125 L 38.230469 204.203125 L 38.230469 224.410156 C 38.230469 224.769531 38.265625 225.128906 38.335938 225.484375 C 38.40625 225.839844 38.511719 226.183594 38.648438 226.519531 C 38.789062 226.851562 38.957031 227.167969 39.160156 227.46875 C 39.359375 227.769531 39.589844 228.050781 39.84375 228.304688 C 40.101562 228.5625 40.378906 228.789062 40.679688 228.992188 C 40.980469 229.191406 41.296875 229.363281 41.632812 229.5 C 41.96875 229.636719 42.3125 229.742188 42.667969 229.8125 C 43.019531 229.882812 43.378906 229.917969 43.742188 229.917969 L 62.109375 229.917969 C 62.472656 229.917969 62.832031 229.882812 63.1875 229.8125 C 63.539062 229.742188 63.886719 229.636719 64.21875 229.5 C 64.554688 229.363281 64.871094 229.191406 65.171875 228.992188 C 65.472656 228.789062 65.75 228.5625 66.007812 228.304688 C 66.261719 228.050781 66.492188 227.769531 66.691406 227.46875 C 66.894531 227.167969 67.0625 226.851562 67.203125 226.519531 C 67.339844 226.183594 67.445312 225.839844 67.515625 225.484375 C 67.585938 225.128906 67.621094 224.769531 67.621094 224.410156 L 67.621094 204.203125 L 87.828125 204.203125 C 88.1875 204.203125 88.546875 204.167969 88.902344 204.097656 C 89.257812 204.027344 89.601562 203.921875 89.9375 203.785156 C 90.269531 203.644531 90.589844 203.476562 90.890625 203.273438 C 91.191406 203.074219 91.46875 202.84375 91.722656 202.589844 C 91.980469 202.332031 92.207031 202.054688 92.410156 201.753906 C 92.609375 201.453125 92.78125 201.136719 92.917969 200.800781 C 93.058594 200.464844 93.160156 200.121094 93.230469 199.765625 C 93.304688 199.414062 93.339844 199.054688 93.339844 198.691406 L 93.339844 180.324219 C 93.339844 179.960938 93.304688 179.601562 93.230469 179.246094 C 93.160156 178.894531 93.058594 178.546875 92.917969 178.214844 C 92.78125 177.878906 92.609375 177.5625 92.410156 177.261719 C 92.207031 176.960938 91.980469 176.683594 91.722656 176.425781 C 91.46875 176.171875 91.191406 175.941406 90.890625 175.742188 C 90.589844 175.539062 90.269531 175.371094 89.9375 175.230469 C 89.601562 175.09375 89.257812 174.988281 88.902344 174.917969 C 88.546875 174.847656 88.1875 174.8125 87.828125 174.8125 Z M 87.828125 174.8125 " fill-opacity="1" fill-rule="nonzero"/></g><g clip-path="url(#1ee64b6de5)"><g clip-path="url(#ced9429d26)"><g clip-path="url(#b3f38ef79e)"><path fill="#06722e" d="M 49.523438 186.855469 C 49.503906 186.832031 49.480469 186.808594 49.460938 186.789062 C 48.46875 186.007812 47.019531 186.386719 46.078125 187.097656 C 45.1875 187.699219 44.472656 188.957031 45.0625 189.976562 C 45.152344 190.125 45.277344 190.242188 45.421875 190.335938 C 46.699219 191.054688 48.359375 190.40625 49.257812 189.335938 C 49.882812 188.695312 50.164062 187.554688 49.523438 186.855469 Z M 45.972656 182.96875 C 45.445312 182.402344 44.449219 182.484375 43.8125 182.890625 C 42.535156 183.6875 41.605469 185.40625 42.269531 186.851562 C 42.339844 186.980469 42.4375 187.089844 42.550781 187.183594 C 43.363281 187.832031 44.523438 187.378906 45.199219 186.71875 C 46.109375 185.867188 46.757812 184.429688 46.167969 183.25 C 46.113281 183.140625 46.050781 183.046875 45.972656 182.96875 Z M 48.589844 192.203125 C 47.636719 191.261719 46.019531 191.480469 44.988281 192.226562 C 44.191406 192.699219 43.601562 193.871094 44.230469 194.683594 C 45.195312 195.734375 47 195.429688 48.019531 194.570312 C 48.738281 194.050781 49.195312 192.957031 48.589844 192.203125 Z M 40.574219 183.6875 C 40.199219 183.257812 39.566406 183.070312 39.007812 183.324219 C 37.507812 184 36.6875 186.066406 37.535156 187.507812 C 37.898438 188.09375 38.695312 188.1875 39.289062 187.886719 C 40.550781 187.242188 41.242188 185.632812 40.875 184.285156 C 40.828125 184.058594 40.71875 183.851562 40.574219 183.6875 Z M 42.464844 190.027344 C 41.722656 189.195312 40.539062 188.734375 39.421875 188.765625 C 38.160156 188.847656 36.871094 189.144531 35.765625 189.796875 C 34.890625 190.171875 34.574219 191.378906 35.203125 192.09375 C 35.941406 192.96875 37.195312 193.171875 38 193.980469 C 38.753906 194.601562 38.949219 195.589844 39.28125 196.460938 C 39.535156 197.226562 40.308594 197.90625 41.164062 197.648438 C 41.976562 197.320312 42.339844 196.410156 42.640625 195.652344 C 43.035156 194.308594 43.4375 192.886719 43.183594 191.488281 C 43.089844 190.921875 42.828125 190.429688 42.464844 190.027344 Z M 42.464844 190.027344 " fill-opacity="1" fill-rule="nonzero"/></g></g></g><g clip-path="url(#36fc0aa257)"><g clip-path="url(#a6826d2cd3)"><g clip-path="url(#7e8c8d1a6c)"><path fill="#06722e" d="M 75.71875 167.304688 C 75.699219 167.28125 75.675781 167.257812 75.65625 167.238281 C 74.664062 166.457031 73.214844 166.835938 72.273438 167.546875 C 71.382812 168.148438 70.667969 169.40625 71.257812 170.425781 C 71.347656 170.574219 71.472656 170.691406 71.617188 170.785156 C 72.894531 171.507812 74.554688 170.855469 75.453125 169.785156 C 76.078125 169.144531 76.359375 168.003906 75.71875 167.304688 Z M 72.167969 163.417969 C 71.640625 162.855469 70.644531 162.933594 70.007812 163.339844 C 68.730469 164.136719 67.800781 165.855469 68.464844 167.300781 C 68.535156 167.429688 68.632812 167.539062 68.746094 167.632812 C 69.558594 168.28125 70.722656 167.828125 71.394531 167.167969 C 72.304688 166.316406 72.953125 164.882812 72.363281 163.699219 C 72.308594 163.589844 72.246094 163.496094 72.167969 163.417969 Z M 74.785156 172.652344 C 73.832031 171.710938 72.214844 171.929688 71.183594 172.675781 C 70.386719 173.148438 69.796875 174.320312 70.425781 175.132812 C 71.390625 176.183594 73.195312 175.878906 74.214844 175.019531 C 74.933594 174.5 75.390625 173.40625 74.785156 172.652344 Z M 66.769531 164.136719 C 66.394531 163.707031 65.761719 163.519531 65.203125 163.773438 C 63.703125 164.449219 62.882812 166.515625 63.730469 167.957031 C 64.09375 168.542969 64.894531 168.636719 65.484375 168.335938 C 66.746094 167.691406 67.441406 166.082031 67.070312 164.734375 C 67.023438 164.507812 66.914062 164.300781 66.769531 164.136719 Z M 68.660156 170.476562 C 67.917969 169.644531 66.734375 169.183594 65.617188 169.214844 C 64.355469 169.296875 63.066406 169.59375 61.964844 170.246094 C 61.085938 170.621094 60.769531 171.828125 61.398438 172.542969 C 62.136719 173.417969 63.390625 173.621094 64.195312 174.433594 C 64.949219 175.054688 65.144531 176.039062 65.476562 176.910156 C 65.730469 177.675781 66.503906 178.355469 67.359375 178.097656 C 68.171875 177.773438 68.535156 176.859375 68.835938 176.101562 C 69.230469 174.757812 69.632812 173.335938 69.378906 171.9375 C 69.285156 171.371094 69.023438 170.878906 68.660156 170.476562 Z M 68.660156 170.476562 " fill-opacity="1" fill-rule="nonzero"/></g></g></g><g clip-path="url(#5a42f8c9da)"><g clip-path="url(#9c929ac04e)"><g clip-path="url(#615dac9186)"><path fill="#06722e" d="M 70.886719 189.226562 C 70.867188 189.203125 70.84375 189.183594 70.824219 189.160156 C 69.832031 188.378906 68.382812 188.757812 67.441406 189.46875 C 66.550781 190.070312 65.835938 191.328125 66.425781 192.347656 C 66.515625 192.496094 66.640625 192.617188 66.785156 192.707031 C 68.0625 193.429688 69.722656 192.777344 70.621094 191.707031 C 71.246094 191.066406 71.53125 189.925781 70.886719 189.226562 Z M 67.335938 185.339844 C 66.808594 184.777344 65.8125 184.855469 65.175781 185.265625 C 63.898438 186.058594 62.96875 187.777344 63.632812 189.222656 C 63.703125 189.351562 63.800781 189.460938 63.914062 189.554688 C 64.726562 190.203125 65.890625 189.75 66.5625 189.089844 C 67.472656 188.238281 68.121094 186.804688 67.53125 185.621094 C 67.476562 185.511719 67.414062 185.417969 67.335938 185.339844 Z M 69.953125 194.574219 C 69 193.632812 67.382812 193.851562 66.351562 194.597656 C 65.554688 195.074219 64.964844 196.242188 65.59375 197.054688 C 66.558594 198.105469 68.363281 197.800781 69.386719 196.941406 C 70.101562 196.421875 70.558594 195.328125 69.953125 194.574219 Z M 61.9375 186.058594 C 61.5625 185.628906 60.929688 185.445312 60.371094 185.695312 C 58.871094 186.371094 58.050781 188.4375 58.898438 189.878906 C 59.265625 190.464844 60.0625 190.558594 60.652344 190.257812 C 61.914062 189.613281 62.609375 188.003906 62.238281 186.65625 C 62.191406 186.429688 62.082031 186.222656 61.9375 186.058594 Z M 63.828125 192.398438 C 63.085938 191.570312 61.902344 191.105469 60.785156 191.136719 C 59.523438 191.222656 58.234375 191.515625 57.132812 192.167969 C 56.253906 192.542969 55.9375 193.75 56.566406 194.464844 C 57.304688 195.339844 58.558594 195.542969 59.363281 196.355469 C 60.117188 196.976562 60.3125 197.960938 60.644531 198.832031 C 60.898438 199.597656 61.671875 200.277344 62.527344 200.023438 C 63.339844 199.695312 63.703125 198.78125 64.007812 198.023438 C 64.398438 196.679688 64.800781 195.257812 64.546875 193.859375 C 64.453125 193.296875 64.195312 192.800781 63.828125 192.398438 Z M 63.828125 192.398438 " fill-opacity="1" fill-rule="nonzero"/></g></g></g><g clip-path="url(#242255bce5)"><g clip-path="url(#c09a6a3b58)"><g clip-path="url(#f023c825af)"><path fill="#06722e" d="M 46.621094 210.46875 C 46.597656 210.445312 46.578125 210.421875 46.554688 210.402344 C 45.566406 209.621094 44.117188 210 43.171875 210.710938 C 42.28125 211.3125 41.566406 212.570312 42.160156 213.589844 C 42.246094 213.738281 42.371094 213.855469 42.515625 213.949219 C 43.792969 214.671875 45.453125 214.019531 46.351562 212.949219 C 46.980469 212.308594 47.261719 211.167969 46.621094 210.46875 Z M 43.070312 206.582031 C 42.539062 206.019531 41.546875 206.097656 40.90625 206.503906 C 39.632812 207.300781 38.703125 209.019531 39.367188 210.464844 C 39.4375 210.59375 39.53125 210.703125 39.644531 210.796875 C 40.460938 211.445312 41.621094 210.992188 42.296875 210.332031 C 43.203125 209.480469 43.851562 208.046875 43.265625 206.863281 C 43.210938 206.753906 43.144531 206.660156 43.070312 206.582031 Z M 45.683594 215.816406 C 44.734375 214.875 43.113281 215.09375 42.085938 215.839844 C 41.289062 216.3125 40.699219 217.484375 41.328125 218.296875 C 42.292969 219.347656 44.097656 219.042969 45.117188 218.183594 C 45.835938 217.664062 46.292969 216.570312 45.683594 215.816406 Z M 37.667969 207.300781 C 37.292969 206.871094 36.664062 206.683594 36.101562 206.9375 C 34.601562 207.613281 33.785156 209.679688 34.628906 211.121094 C 34.996094 211.707031 35.792969 211.800781 36.382812 211.5 C 37.644531 210.855469 38.339844 209.246094 37.972656 207.898438 C 37.921875 207.671875 37.816406 207.464844 37.667969 207.300781 Z M 39.5625 213.640625 C 38.816406 212.808594 37.636719 212.347656 36.519531 212.378906 C 35.257812 212.460938 33.964844 212.757812 32.863281 213.410156 C 31.984375 213.785156 31.667969 214.992188 32.296875 215.707031 C 33.039062 216.582031 34.289062 216.785156 35.09375 217.597656 C 35.847656 218.21875 36.046875 219.203125 36.375 220.074219 C 36.628906 220.839844 37.402344 221.519531 38.257812 221.261719 C 39.070312 220.9375 39.433594 220.023438 39.738281 219.265625 C 40.132812 217.921875 40.535156 216.5 40.28125 215.101562 C 40.183594 214.539062 39.925781 214.042969 39.5625 213.640625 Z M 39.5625 213.640625 " fill-opacity="1" fill-rule="nonzero"/></g></g></g><g fill="#49a6a6" fill-opacity="0.4"><g transform="translate(96.880634, 218.112365)"><g><path d="M 12.984375 0.234375 C 11.660156 0.234375 10.425781 0.128906 9.28125 -0.078125 C 8.144531 -0.296875 7.519531 -0.640625 7.40625 -1.109375 C 7.300781 -1.484375 7.207031 -2.734375 7.125 -4.859375 C 7.050781 -6.984375 6.972656 -9.664062 6.890625 -12.90625 C 6.816406 -16.144531 6.765625 -19.632812 6.734375 -23.375 C 6.703125 -27.125 6.6875 -30.832031 6.6875 -34.5 L 6.78125 -44.9375 C 6.25 -45.050781 5.796875 -45.132812 5.421875 -45.1875 C 5.046875 -45.238281 4.726562 -45.289062 4.46875 -45.34375 C 4.351562 -45.394531 4.242188 -45.832031 4.140625 -46.65625 C 4.035156 -47.476562 3.984375 -48.421875 3.984375 -49.484375 C 3.984375 -50.867188 4.101562 -52.171875 4.34375 -53.390625 C 4.582031 -54.609375 5.019531 -55.21875 5.65625 -55.21875 C 6.988281 -55.269531 8.703125 -55.296875 10.796875 -55.296875 C 12.898438 -55.296875 15.144531 -55.3125 17.53125 -55.34375 C 19.925781 -55.375 22.210938 -55.414062 24.390625 -55.46875 C 26.566406 -55.519531 28.410156 -55.570312 29.921875 -55.625 C 31.429688 -55.675781 32.320312 -55.726562 32.59375 -55.78125 L 32.671875 -55.78125 C 33.097656 -55.78125 33.414062 -55.207031 33.625 -54.0625 C 33.84375 -52.925781 33.953125 -51.664062 33.953125 -50.28125 C 33.953125 -49.0625 33.859375 -47.945312 33.671875 -46.9375 C 33.484375 -45.925781 33.148438 -45.367188 32.671875 -45.265625 C 32.566406 -45.265625 31.726562 -45.222656 30.15625 -45.140625 C 28.59375 -45.066406 26.65625 -45 24.34375 -44.9375 C 22.03125 -44.882812 19.65625 -44.832031 17.21875 -44.78125 L 17.046875 -32.59375 C 19.492188 -32.644531 21.523438 -32.695312 23.140625 -32.75 C 24.765625 -32.800781 25.6875 -32.851562 25.90625 -32.90625 L 25.984375 -32.90625 C 26.398438 -32.90625 26.710938 -32.347656 26.921875 -31.234375 C 27.140625 -30.117188 27.25 -28.898438 27.25 -27.578125 C 27.25 -26.347656 27.140625 -25.203125 26.921875 -24.140625 C 26.710938 -23.078125 26.375 -22.492188 25.90625 -22.390625 C 25.84375 -22.335938 24.988281 -22.285156 23.34375 -22.234375 C 21.695312 -22.179688 19.597656 -22.128906 17.046875 -22.078125 C 17.046875 -19.953125 17.0625 -17.90625 17.09375 -15.9375 C 17.125 -13.96875 17.164062 -12.132812 17.21875 -10.4375 C 19.875 -10.488281 22.300781 -10.523438 24.5 -10.546875 C 26.707031 -10.578125 28.515625 -10.617188 29.921875 -10.671875 C 31.328125 -10.734375 32.140625 -10.789062 32.359375 -10.84375 L 32.4375 -10.84375 C 32.863281 -10.84375 33.179688 -10.28125 33.390625 -9.15625 C 33.597656 -8.039062 33.703125 -6.820312 33.703125 -5.5 C 33.703125 -4.28125 33.597656 -3.140625 33.390625 -2.078125 C 33.179688 -1.015625 32.835938 -0.425781 32.359375 -0.3125 C 32.242188 -0.3125 31.253906 -0.269531 29.390625 -0.1875 C 27.535156 -0.113281 25.160156 -0.0390625 22.265625 0.03125 C 19.378906 0.113281 16.285156 0.179688 12.984375 0.234375 Z M 12.984375 0.234375 "/></g></g></g><g fill="#49a6a6" fill-opacity="0.4"><g transform="translate(130.823894, 218.112365)"><g><path d="M 11 0.3125 C 9.613281 0.3125 8.3125 0.140625 7.09375 -0.203125 C 5.875 -0.546875 5.238281 -0.878906 5.1875 -1.203125 L 5.1875 -1.75 C 5.1875 -2.707031 5.265625 -4.515625 5.421875 -7.171875 C 5.578125 -9.828125 5.800781 -12.945312 6.09375 -16.53125 C 6.382812 -20.125 6.71875 -23.882812 7.09375 -27.8125 C 7.46875 -31.738281 7.835938 -35.507812 8.203125 -39.125 C 8.578125 -42.738281 8.925781 -45.847656 9.25 -48.453125 C 7.8125 -48.296875 6.851562 -48.21875 6.375 -48.21875 C 5.738281 -48.21875 5.378906 -48.398438 5.296875 -48.765625 C 5.222656 -49.140625 5.101562 -49.859375 4.9375 -50.921875 C 4.882812 -51.503906 4.816406 -52.019531 4.734375 -52.46875 C 4.660156 -52.925781 4.625 -53.335938 4.625 -53.703125 C 4.625 -54.398438 4.863281 -54.867188 5.34375 -55.109375 C 5.820312 -55.347656 6.773438 -55.519531 8.203125 -55.625 L 12.1875 -55.703125 C 13.78125 -55.703125 15.5625 -55.6875 17.53125 -55.65625 C 19.5 -55.632812 21.410156 -55.582031 23.265625 -55.5 C 25.128906 -55.425781 26.679688 -55.320312 27.921875 -55.1875 C 29.171875 -55.050781 29.851562 -54.878906 29.96875 -54.671875 C 30.125 -54.242188 30.347656 -53.085938 30.640625 -51.203125 C 30.929688 -49.316406 31.234375 -46.925781 31.546875 -44.03125 C 31.867188 -41.132812 32.1875 -37.984375 32.5 -34.578125 C 32.820312 -31.179688 33.144531 -27.742188 33.46875 -24.265625 C 33.789062 -20.785156 34.070312 -17.503906 34.3125 -14.421875 C 34.550781 -11.335938 34.734375 -8.679688 34.859375 -6.453125 C 34.992188 -4.222656 35.0625 -2.679688 35.0625 -1.828125 L 35.0625 -1.203125 C 35.007812 -0.828125 34.398438 -0.492188 33.234375 -0.203125 C 32.066406 0.0859375 30.789062 0.234375 29.40625 0.234375 C 28.070312 0.234375 26.847656 0.0234375 25.734375 -0.390625 C 24.617188 -0.816406 24.035156 -1.617188 23.984375 -2.796875 L 23.671875 -12.4375 C 23.035156 -12.320312 22.394531 -12.222656 21.75 -12.140625 C 21.113281 -12.066406 20.476562 -12.03125 19.84375 -12.03125 C 19.3125 -12.03125 18.765625 -12.054688 18.203125 -12.109375 C 17.648438 -12.160156 17.109375 -12.269531 16.578125 -12.4375 L 16.09375 -2.796875 C 16.039062 -1.617188 15.492188 -0.804688 14.453125 -0.359375 C 13.421875 0.0859375 12.269531 0.3125 11 0.3125 Z M 19.921875 -21.921875 L 21.828125 -22 C 22.097656 -22.050781 22.285156 -22.101562 22.390625 -22.15625 C 22.492188 -22.207031 22.546875 -22.523438 22.546875 -23.109375 C 22.546875 -23.691406 22.492188 -24.660156 22.390625 -26.015625 C 22.285156 -27.367188 22.128906 -29.320312 21.921875 -31.875 C 21.390625 -40.164062 20.722656 -44.3125 19.921875 -44.3125 C 19.234375 -44.3125 18.570312 -40.164062 17.9375 -31.875 C 17.769531 -29.375 17.632812 -27.445312 17.53125 -26.09375 C 17.425781 -24.738281 17.375 -23.769531 17.375 -23.1875 C 17.375 -22.550781 17.4375 -22.207031 17.5625 -22.15625 C 17.695312 -22.101562 17.875 -22.050781 18.09375 -22 Z M 19.921875 -21.921875 "/></g></g></g><g fill="#49a6a6" fill-opacity="0.4"><g transform="translate(166.28106, 218.112365)"><g><path d="M 25.421875 0.078125 L 15.703125 0.078125 C 13.679688 0.078125 11.804688 -0.4375 10.078125 -1.46875 C 8.347656 -2.507812 6.976562 -3.90625 5.96875 -5.65625 C 4.96875 -7.40625 4.46875 -9.34375 4.46875 -11.46875 L 4.46875 -19.921875 C 4.570312 -20.191406 5.179688 -20.40625 6.296875 -20.5625 C 7.410156 -20.71875 8.632812 -20.796875 9.96875 -20.796875 C 11.1875 -20.796875 12.285156 -20.71875 13.265625 -20.5625 C 14.253906 -20.40625 14.773438 -20.191406 14.828125 -19.921875 L 14.828125 -14.578125 C 14.828125 -12.929688 15.394531 -11.535156 16.53125 -10.390625 C 17.675781 -9.253906 19.019531 -8.6875 20.5625 -8.6875 C 22.15625 -8.6875 23.507812 -9.253906 24.625 -10.390625 C 25.738281 -11.535156 26.296875 -12.929688 26.296875 -14.578125 L 26.375 -17.53125 C 26.375 -18.539062 26.203125 -19.148438 25.859375 -19.359375 C 25.515625 -19.578125 24.648438 -19.925781 23.265625 -20.40625 C 21.835938 -20.9375 20.140625 -21.597656 18.171875 -22.390625 C 16.203125 -23.191406 14.300781 -23.988281 12.46875 -24.78125 C 10.632812 -25.582031 9.160156 -26.273438 8.046875 -26.859375 C 6.722656 -27.546875 5.820312 -28.25 5.34375 -28.96875 C 4.863281 -29.6875 4.609375 -30.320312 4.578125 -30.875 C 4.554688 -31.4375 4.519531 -31.796875 4.46875 -31.953125 L 4.46875 -44.3125 C 4.46875 -46.4375 4.96875 -48.359375 5.96875 -50.078125 C 6.976562 -51.804688 8.347656 -53.1875 10.078125 -54.21875 C 11.804688 -55.257812 13.679688 -55.78125 15.703125 -55.78125 L 25.421875 -55.78125 C 27.492188 -55.78125 29.378906 -55.257812 31.078125 -54.21875 C 32.773438 -53.1875 34.128906 -51.804688 35.140625 -50.078125 C 36.148438 -48.359375 36.65625 -46.4375 36.65625 -44.3125 L 36.65625 -34.109375 C 36.601562 -33.835938 36.019531 -33.625 34.90625 -33.46875 C 33.789062 -33.3125 32.566406 -33.234375 31.234375 -33.234375 C 30.015625 -33.234375 28.898438 -33.3125 27.890625 -33.46875 C 26.878906 -33.625 26.347656 -33.835938 26.296875 -34.109375 L 26.296875 -41.203125 C 26.296875 -42.796875 25.738281 -44.175781 24.625 -45.34375 C 23.507812 -46.507812 22.15625 -47.09375 20.5625 -47.09375 C 19.125 -47.09375 17.859375 -46.585938 16.765625 -45.578125 C 15.679688 -44.566406 15.0625 -43.347656 14.90625 -41.921875 L 14.828125 -41.59375 L 14.828125 -37.140625 C 14.878906 -36.285156 15.085938 -35.59375 15.453125 -35.0625 C 16.359375 -33.894531 17.609375 -32.953125 19.203125 -32.234375 C 20.796875 -31.515625 22.519531 -30.875 24.375 -30.3125 C 26.238281 -29.757812 28.035156 -29.21875 29.765625 -28.6875 C 31.492188 -28.15625 32.914062 -27.519531 34.03125 -26.78125 C 35.195312 -25.976562 35.9375 -25.257812 36.25 -24.625 C 36.570312 -23.988281 36.734375 -23.242188 36.734375 -22.390625 L 36.65625 -19.28125 L 36.65625 -11.46875 C 36.65625 -9.34375 36.148438 -7.40625 35.140625 -5.65625 C 34.128906 -3.90625 32.773438 -2.507812 31.078125 -1.46875 C 29.378906 -0.4375 27.492188 0.078125 25.421875 0.078125 Z M 25.421875 0.078125 "/></g></g></g><g fill="#49a6a6" fill-opacity="0.4"><g transform="translate(203.01309, 218.112365)"><g><path d="M 15.703125 0.078125 C 14.472656 0.078125 13.328125 -0.0234375 12.265625 -0.234375 C 11.203125 -0.453125 10.617188 -0.800781 10.515625 -1.28125 C 10.460938 -1.644531 10.394531 -2.835938 10.3125 -4.859375 C 10.238281 -6.878906 10.160156 -9.441406 10.078125 -12.546875 C 10.003906 -15.660156 9.953125 -19.046875 9.921875 -22.703125 C 9.890625 -26.367188 9.875 -29.984375 9.875 -33.546875 C 9.875 -35.722656 9.875 -37.804688 9.875 -39.796875 C 9.875 -41.796875 9.90625 -43.644531 9.96875 -45.34375 C 7.625 -45.34375 5.5625 -45.378906 3.78125 -45.453125 C 2 -45.535156 0.816406 -45.6875 0.234375 -45.90625 C 0.128906 -45.957031 0.0234375 -46.394531 -0.078125 -47.21875 C -0.179688 -48.039062 -0.234375 -48.984375 -0.234375 -50.046875 C -0.234375 -51.421875 -0.113281 -52.71875 0.125 -53.9375 C 0.363281 -55.164062 0.800781 -55.804688 1.4375 -55.859375 L 2.390625 -55.859375 C 4.085938 -55.859375 6.660156 -55.816406 10.109375 -55.734375 C 13.566406 -55.660156 17.179688 -55.625 20.953125 -55.625 C 22.492188 -55.625 24.019531 -55.632812 25.53125 -55.65625 C 27.050781 -55.6875 28.503906 -55.726562 29.890625 -55.78125 C 30.304688 -55.78125 30.617188 -55.300781 30.828125 -54.34375 C 31.046875 -53.382812 31.15625 -52.296875 31.15625 -51.078125 C 31.15625 -49.910156 31.046875 -48.796875 30.828125 -47.734375 C 30.617188 -46.671875 30.25 -46.085938 29.71875 -45.984375 C 29.300781 -45.878906 28.210938 -45.785156 26.453125 -45.703125 C 24.703125 -45.617188 22.660156 -45.523438 20.328125 -45.421875 L 20.15625 -25.421875 C 20.15625 -21.753906 20.179688 -18.21875 20.234375 -14.8125 C 20.296875 -11.414062 20.390625 -8.507812 20.515625 -6.09375 C 20.648438 -3.675781 20.820312 -2.070312 21.03125 -1.28125 L 21.03125 -1.203125 C 21.03125 -0.828125 20.484375 -0.519531 19.390625 -0.28125 C 18.304688 -0.0390625 17.078125 0.078125 15.703125 0.078125 Z M 15.703125 0.078125 "/></g></g></g><g fill="#18ab4f" fill-opacity="1"><g transform="translate(96.880634, 218.112365)"><g><path d="M 12.984375 0.234375 C 11.660156 0.234375 10.425781 0.128906 9.28125 -0.078125 C 8.144531 -0.296875 7.519531 -0.640625 7.40625 -1.109375 C 7.300781 -1.484375 7.207031 -2.734375 7.125 -4.859375 C 7.050781 -6.984375 6.972656 -9.664062 6.890625 -12.90625 C 6.816406 -16.144531 6.765625 -19.632812 6.734375 -23.375 C 6.703125 -27.125 6.6875 -30.832031 6.6875 -34.5 L 6.78125 -44.9375 C 6.25 -45.050781 5.796875 -45.132812 5.421875 -45.1875 C 5.046875 -45.238281 4.726562 -45.289062 4.46875 -45.34375 C 4.351562 -45.394531 4.242188 -45.832031 4.140625 -46.65625 C 4.035156 -47.476562 3.984375 -48.421875 3.984375 -49.484375 C 3.984375 -50.867188 4.101562 -52.171875 4.34375 -53.390625 C 4.582031 -54.609375 5.019531 -55.21875 5.65625 -55.21875 C 6.988281 -55.269531 8.703125 -55.296875 10.796875 -55.296875 C 12.898438 -55.296875 15.144531 -55.3125 17.53125 -55.34375 C 19.925781 -55.375 22.210938 -55.414062 24.390625 -55.46875 C 26.566406 -55.519531 28.410156 -55.570312 29.921875 -55.625 C 31.429688 -55.675781 32.320312 -55.726562 32.59375 -55.78125 L 32.671875 -55.78125 C 33.097656 -55.78125 33.414062 -55.207031 33.625 -54.0625 C 33.84375 -52.925781 33.953125 -51.664062 33.953125 -50.28125 C 33.953125 -49.0625 33.859375 -47.945312 33.671875 -46.9375 C 33.484375 -45.925781 33.148438 -45.367188 32.671875 -45.265625 C 32.566406 -45.265625 31.726562 -45.222656 30.15625 -45.140625 C 28.59375 -45.066406 26.65625 -45 24.34375 -44.9375 C 22.03125 -44.882812 19.65625 -44.832031 17.21875 -44.78125 L 17.046875 -32.59375 C 19.492188 -32.644531 21.523438 -32.695312 23.140625 -32.75 C 24.765625 -32.800781 25.6875 -32.851562 25.90625 -32.90625 L 25.984375 -32.90625 C 26.398438 -32.90625 26.710938 -32.347656 26.921875 -31.234375 C 27.140625 -30.117188 27.25 -28.898438 27.25 -27.578125 C 27.25 -26.347656 27.140625 -25.203125 26.921875 -24.140625 C 26.710938 -23.078125 26.375 -22.492188 25.90625 -22.390625 C 25.84375 -22.335938 24.988281 -22.285156 23.34375 -22.234375 C 21.695312 -22.179688 19.597656 -22.128906 17.046875 -22.078125 C 17.046875 -19.953125 17.0625 -17.90625 17.09375 -15.9375 C 17.125 -13.96875 17.164062 -12.132812 17.21875 -10.4375 C 19.875 -10.488281 22.300781 -10.523438 24.5 -10.546875 C 26.707031 -10.578125 28.515625 -10.617188 29.921875 -10.671875 C 31.328125 -10.734375 32.140625 -10.789062 32.359375 -10.84375 L 32.4375 -10.84375 C 32.863281 -10.84375 33.179688 -10.28125 33.390625 -9.15625 C 33.597656 -8.039062 33.703125 -6.820312 33.703125 -5.5 C 33.703125 -4.28125 33.597656 -3.140625 33.390625 -2.078125 C 33.179688 -1.015625 32.835938 -0.425781 32.359375 -0.3125 C 32.242188 -0.3125 31.253906 -0.269531 29.390625 -0.1875 C 27.535156 -0.113281 25.160156 -0.0390625 22.265625 0.03125 C 19.378906 0.113281 16.285156 0.179688 12.984375 0.234375 Z M 12.984375 0.234375 "/></g></g></g><g fill="#18ab4f" fill-opacity="1"><g transform="translate(130.823894, 218.112365)"><g><path d="M 11 0.3125 C 9.613281 0.3125 8.3125 0.140625 7.09375 -0.203125 C 5.875 -0.546875 5.238281 -0.878906 5.1875 -1.203125 L 5.1875 -1.75 C 5.1875 -2.707031 5.265625 -4.515625 5.421875 -7.171875 C 5.578125 -9.828125 5.800781 -12.945312 6.09375 -16.53125 C 6.382812 -20.125 6.71875 -23.882812 7.09375 -27.8125 C 7.46875 -31.738281 7.835938 -35.507812 8.203125 -39.125 C 8.578125 -42.738281 8.925781 -45.847656 9.25 -48.453125 C 7.8125 -48.296875 6.851562 -48.21875 6.375 -48.21875 C 5.738281 -48.21875 5.378906 -48.398438 5.296875 -48.765625 C 5.222656 -49.140625 5.101562 -49.859375 4.9375 -50.921875 C 4.882812 -51.503906 4.816406 -52.019531 4.734375 -52.46875 C 4.660156 -52.925781 4.625 -53.335938 4.625 -53.703125 C 4.625 -54.398438 4.863281 -54.867188 5.34375 -55.109375 C 5.820312 -55.347656 6.773438 -55.519531 8.203125 -55.625 L 12.1875 -55.703125 C 13.78125 -55.703125 15.5625 -55.6875 17.53125 -55.65625 C 19.5 -55.632812 21.410156 -55.582031 23.265625 -55.5 C 25.128906 -55.425781 26.679688 -55.320312 27.921875 -55.1875 C 29.171875 -55.050781 29.851562 -54.878906 29.96875 -54.671875 C 30.125 -54.242188 30.347656 -53.085938 30.640625 -51.203125 C 30.929688 -49.316406 31.234375 -46.925781 31.546875 -44.03125 C 31.867188 -41.132812 32.1875 -37.984375 32.5 -34.578125 C 32.820312 -31.179688 33.144531 -27.742188 33.46875 -24.265625 C 33.789062 -20.785156 34.070312 -17.503906 34.3125 -14.421875 C 34.550781 -11.335938 34.734375 -8.679688 34.859375 -6.453125 C 34.992188 -4.222656 35.0625 -2.679688 35.0625 -1.828125 L 35.0625 -1.203125 C 35.007812 -0.828125 34.398438 -0.492188 33.234375 -0.203125 C 32.066406 0.0859375 30.789062 0.234375 29.40625 0.234375 C 28.070312 0.234375 26.847656 0.0234375 25.734375 -0.390625 C 24.617188 -0.816406 24.035156 -1.617188 23.984375 -2.796875 L 23.671875 -12.4375 C 23.035156 -12.320312 22.394531 -12.222656 21.75 -12.140625 C 21.113281 -12.066406 20.476562 -12.03125 19.84375 -12.03125 C 19.3125 -12.03125 18.765625 -12.054688 18.203125 -12.109375 C 17.648438 -12.160156 17.109375 -12.269531 16.578125 -12.4375 L 16.09375 -2.796875 C 16.039062 -1.617188 15.492188 -0.804688 14.453125 -0.359375 C 13.421875 0.0859375 12.269531 0.3125 11 0.3125 Z M 19.921875 -21.921875 L 21.828125 -22 C 22.097656 -22.050781 22.285156 -22.101562 22.390625 -22.15625 C 22.492188 -22.207031 22.546875 -22.523438 22.546875 -23.109375 C 22.546875 -23.691406 22.492188 -24.660156 22.390625 -26.015625 C 22.285156 -27.367188 22.128906 -29.320312 21.921875 -31.875 C 21.390625 -40.164062 20.722656 -44.3125 19.921875 -44.3125 C 19.234375 -44.3125 18.570312 -40.164062 17.9375 -31.875 C 17.769531 -29.375 17.632812 -27.445312 17.53125 -26.09375 C 17.425781 -24.738281 17.375 -23.769531 17.375 -23.1875 C 17.375 -22.550781 17.4375 -22.207031 17.5625 -22.15625 C 17.695312 -22.101562 17.875 -22.050781 18.09375 -22 Z M 19.921875 -21.921875 "/></g></g></g><g fill="#18ab4f" fill-opacity="1"><g transform="translate(166.28106, 218.112365)"><g><path d="M 25.421875 0.078125 L 15.703125 0.078125 C 13.679688 0.078125 11.804688 -0.4375 10.078125 -1.46875 C 8.347656 -2.507812 6.976562 -3.90625 5.96875 -5.65625 C 4.96875 -7.40625 4.46875 -9.34375 4.46875 -11.46875 L 4.46875 -19.921875 C 4.570312 -20.191406 5.179688 -20.40625 6.296875 -20.5625 C 7.410156 -20.71875 8.632812 -20.796875 9.96875 -20.796875 C 11.1875 -20.796875 12.285156 -20.71875 13.265625 -20.5625 C 14.253906 -20.40625 14.773438 -20.191406 14.828125 -19.921875 L 14.828125 -14.578125 C 14.828125 -12.929688 15.394531 -11.535156 16.53125 -10.390625 C 17.675781 -9.253906 19.019531 -8.6875 20.5625 -8.6875 C 22.15625 -8.6875 23.507812 -9.253906 24.625 -10.390625 C 25.738281 -11.535156 26.296875 -12.929688 26.296875 -14.578125 L 26.375 -17.53125 C 26.375 -18.539062 26.203125 -19.148438 25.859375 -19.359375 C 25.515625 -19.578125 24.648438 -19.925781 23.265625 -20.40625 C 21.835938 -20.9375 20.140625 -21.597656 18.171875 -22.390625 C 16.203125 -23.191406 14.300781 -23.988281 12.46875 -24.78125 C 10.632812 -25.582031 9.160156 -26.273438 8.046875 -26.859375 C 6.722656 -27.546875 5.820312 -28.25 5.34375 -28.96875 C 4.863281 -29.6875 4.609375 -30.320312 4.578125 -30.875 C 4.554688 -31.4375 4.519531 -31.796875 4.46875 -31.953125 L 4.46875 -44.3125 C 4.46875 -46.4375 4.96875 -48.359375 5.96875 -50.078125 C 6.976562 -51.804688 8.347656 -53.1875 10.078125 -54.21875 C 11.804688 -55.257812 13.679688 -55.78125 15.703125 -55.78125 L 25.421875 -55.78125 C 27.492188 -55.78125 29.378906 -55.257812 31.078125 -54.21875 C 32.773438 -53.1875 34.128906 -51.804688 35.140625 -50.078125 C 36.148438 -48.359375 36.65625 -46.4375 36.65625 -44.3125 L 36.65625 -34.109375 C 36.601562 -33.835938 36.019531 -33.625 34.90625 -33.46875 C 33.789062 -33.3125 32.566406 -33.234375 31.234375 -33.234375 C 30.015625 -33.234375 28.898438 -33.3125 27.890625 -33.46875 C 26.878906 -33.625 26.347656 -33.835938 26.296875 -34.109375 L 26.296875 -41.203125 C 26.296875 -42.796875 25.738281 -44.175781 24.625 -45.34375 C 23.507812 -46.507812 22.15625 -47.09375 20.5625 -47.09375 C 19.125 -47.09375 17.859375 -46.585938 16.765625 -45.578125 C 15.679688 -44.566406 15.0625 -43.347656 14.90625 -41.921875 L 14.828125 -41.59375 L 14.828125 -37.140625 C 14.878906 -36.285156 15.085938 -35.59375 15.453125 -35.0625 C 16.359375 -33.894531 17.609375 -32.953125 19.203125 -32.234375 C 20.796875 -31.515625 22.519531 -30.875 24.375 -30.3125 C 26.238281 -29.757812 28.035156 -29.21875 29.765625 -28.6875 C 31.492188 -28.15625 32.914062 -27.519531 34.03125 -26.78125 C 35.195312 -25.976562 35.9375 -25.257812 36.25 -24.625 C 36.570312 -23.988281 36.734375 -23.242188 36.734375 -22.390625 L 36.65625 -19.28125 L 36.65625 -11.46875 C 36.65625 -9.34375 36.148438 -7.40625 35.140625 -5.65625 C 34.128906 -3.90625 32.773438 -2.507812 31.078125 -1.46875 C 29.378906 -0.4375 27.492188 0.078125 25.421875 0.078125 Z M 25.421875 0.078125 "/></g></g></g><g fill="#18ab4f" fill-opacity="1"><g transform="translate(203.01309, 218.112365)"><g><path d="M 15.703125 0.078125 C 14.472656 0.078125 13.328125 -0.0234375 12.265625 -0.234375 C 11.203125 -0.453125 10.617188 -0.800781 10.515625 -1.28125 C 10.460938 -1.644531 10.394531 -2.835938 10.3125 -4.859375 C 10.238281 -6.878906 10.160156 -9.441406 10.078125 -12.546875 C 10.003906 -15.660156 9.953125 -19.046875 9.921875 -22.703125 C 9.890625 -26.367188 9.875 -29.984375 9.875 -33.546875 C 9.875 -35.722656 9.875 -37.804688 9.875 -39.796875 C 9.875 -41.796875 9.90625 -43.644531 9.96875 -45.34375 C 7.625 -45.34375 5.5625 -45.378906 3.78125 -45.453125 C 2 -45.535156 0.816406 -45.6875 0.234375 -45.90625 C 0.128906 -45.957031 0.0234375 -46.394531 -0.078125 -47.21875 C -0.179688 -48.039062 -0.234375 -48.984375 -0.234375 -50.046875 C -0.234375 -51.421875 -0.113281 -52.71875 0.125 -53.9375 C 0.363281 -55.164062 0.800781 -55.804688 1.4375 -55.859375 L 2.390625 -55.859375 C 4.085938 -55.859375 6.660156 -55.816406 10.109375 -55.734375 C 13.566406 -55.660156 17.179688 -55.625 20.953125 -55.625 C 22.492188 -55.625 24.019531 -55.632812 25.53125 -55.65625 C 27.050781 -55.6875 28.503906 -55.726562 29.890625 -55.78125 C 30.304688 -55.78125 30.617188 -55.300781 30.828125 -54.34375 C 31.046875 -53.382812 31.15625 -52.296875 31.15625 -51.078125 C 31.15625 -49.910156 31.046875 -48.796875 30.828125 -47.734375 C 30.617188 -46.671875 30.25 -46.085938 29.71875 -45.984375 C 29.300781 -45.878906 28.210938 -45.785156 26.453125 -45.703125 C 24.703125 -45.617188 22.660156 -45.523438 20.328125 -45.421875 L 20.15625 -25.421875 C 20.15625 -21.753906 20.179688 -18.21875 20.234375 -14.8125 C 20.296875 -11.414062 20.390625 -8.507812 20.515625 -6.09375 C 20.648438 -3.675781 20.820312 -2.070312 21.03125 -1.28125 L 21.03125 -1.203125 C 21.03125 -0.828125 20.484375 -0.519531 19.390625 -0.28125 C 18.304688 -0.0390625 17.078125 0.078125 15.703125 0.078125 Z M 15.703125 0.078125 "/></g></g></g><g fill="#ffffff" fill-opacity="1"><g transform="translate(234.190624, 216.659725)"><g><path d="M 33.46875 3.1875 C 32.3125 3.1875 31.222656 3.082031 30.203125 2.875 C 29.191406 2.675781 28.640625 2.347656 28.546875 1.890625 C 28.546875 1.847656 28.53125 1.6875 28.5 1.40625 C 28.476562 1.125 28.46875 0.734375 28.46875 0.234375 C 27.851562 0.273438 27.253906 0.296875 26.671875 0.296875 C 26.097656 0.296875 25.503906 0.296875 24.890625 0.296875 C 23.472656 0.296875 22.109375 0.242188 20.796875 0.140625 C 19.484375 0.046875 18.296875 -0.0976562 17.234375 -0.296875 C 14.703125 -0.859375 12.421875 -1.945312 10.390625 -3.5625 C 8.367188 -5.1875 6.765625 -7.640625 5.578125 -10.921875 C 4.390625 -14.210938 3.796875 -18.59375 3.796875 -24.0625 L 3.875 -27.484375 C 4.070312 -32.234375 4.664062 -36.164062 5.65625 -39.28125 C 6.644531 -42.394531 7.894531 -44.875 9.40625 -46.71875 C 10.925781 -48.5625 12.597656 -49.9375 14.421875 -50.84375 C 16.242188 -51.757812 18.066406 -52.394531 19.890625 -52.75 C 20.441406 -52.851562 21.460938 -52.953125 22.953125 -53.046875 C 24.453125 -53.148438 26.113281 -53.203125 27.9375 -53.203125 L 32.5625 -53.0625 C 33.269531 -53.0625 33.773438 -52.578125 34.078125 -51.609375 C 34.378906 -50.648438 34.53125 -49.613281 34.53125 -48.5 C 34.53125 -47.59375 34.453125 -46.769531 34.296875 -46.03125 C 34.148438 -45.300781 33.953125 -44.859375 33.703125 -44.703125 L 26.953125 -44.78125 C 25.734375 -44.78125 24.640625 -44.753906 23.671875 -44.703125 C 22.710938 -44.660156 22.035156 -44.5625 21.640625 -44.40625 C 20.828125 -44.15625 19.925781 -43.332031 18.9375 -41.9375 C 17.945312 -40.539062 17.082031 -38.460938 16.34375 -35.703125 C 15.613281 -32.953125 15.25 -29.398438 15.25 -25.046875 L 15.328125 -22.015625 C 15.484375 -18.171875 16.015625 -15.234375 16.921875 -13.203125 C 17.835938 -11.179688 19.101562 -9.800781 20.71875 -9.0625 C 22.34375 -8.332031 24.265625 -7.96875 26.484375 -7.96875 L 28.15625 -8.046875 C 28.101562 -10.222656 28.050781 -12.5 28 -14.875 C 27.957031 -17.25 27.9375 -19.503906 27.9375 -21.640625 L 22.625 -21.5625 C 22.0625 -21.65625 21.640625 -22.347656 21.359375 -23.640625 C 21.085938 -24.929688 20.953125 -26.257812 20.953125 -27.625 C 20.953125 -28.6875 21.023438 -29.609375 21.171875 -30.390625 C 21.328125 -31.179688 21.582031 -31.578125 21.9375 -31.578125 L 23 -31.5 C 23.707031 -31.5 24.691406 -31.535156 25.953125 -31.609375 C 27.222656 -31.691406 28.664062 -31.757812 30.28125 -31.8125 L 32.1875 -31.875 C 33.5 -31.875 34.773438 -31.757812 36.015625 -31.53125 C 37.253906 -31.3125 37.898438 -30.867188 37.953125 -30.203125 C 37.953125 -29.191406 37.960938 -27.722656 37.984375 -25.796875 C 38.015625 -23.878906 38.039062 -21.753906 38.0625 -19.421875 C 38.09375 -17.097656 38.117188 -14.734375 38.140625 -12.328125 C 38.171875 -9.929688 38.207031 -7.691406 38.25 -5.609375 C 38.300781 -3.535156 38.351562 -1.828125 38.40625 -0.484375 C 38.457031 0.847656 38.507812 1.640625 38.5625 1.890625 L 38.5625 1.96875 C 38.5625 2.320312 38.03125 2.613281 36.96875 2.84375 C 35.90625 3.070312 34.738281 3.1875 33.46875 3.1875 Z M 33.46875 3.1875 "/></g></g></g><g fill="#ffffff" fill-opacity="1"><g transform="translate(272.746813, 216.659725)"><g><path d="M 10.46875 0.296875 C 9.15625 0.296875 7.914062 0.132812 6.75 -0.1875 C 5.59375 -0.519531 4.988281 -0.835938 4.9375 -1.140625 L 4.9375 -1.671875 C 4.9375 -2.578125 5.007812 -4.296875 5.15625 -6.828125 C 5.3125 -9.359375 5.523438 -12.332031 5.796875 -15.75 C 6.078125 -19.164062 6.394531 -22.742188 6.75 -26.484375 C 7.101562 -30.234375 7.457031 -33.828125 7.8125 -37.265625 C 8.164062 -40.710938 8.5 -43.675781 8.8125 -46.15625 C 7.4375 -46 6.523438 -45.921875 6.078125 -45.921875 C 5.460938 -45.921875 5.117188 -46.097656 5.046875 -46.453125 C 4.972656 -46.804688 4.859375 -47.488281 4.703125 -48.5 C 4.648438 -49.0625 4.585938 -49.554688 4.515625 -49.984375 C 4.441406 -50.410156 4.40625 -50.800781 4.40625 -51.15625 C 4.40625 -51.8125 4.628906 -52.253906 5.078125 -52.484375 C 5.535156 -52.710938 6.445312 -52.878906 7.8125 -52.984375 L 11.609375 -53.0625 C 13.128906 -53.0625 14.828125 -53.046875 16.703125 -53.015625 C 18.578125 -52.992188 20.398438 -52.941406 22.171875 -52.859375 C 23.941406 -52.785156 25.421875 -52.6875 26.609375 -52.5625 C 27.796875 -52.4375 28.441406 -52.273438 28.546875 -52.078125 C 28.691406 -51.671875 28.90625 -50.566406 29.1875 -48.765625 C 29.46875 -46.972656 29.757812 -44.695312 30.0625 -41.9375 C 30.363281 -39.175781 30.664062 -36.175781 30.96875 -32.9375 C 31.269531 -29.695312 31.570312 -26.421875 31.875 -23.109375 C 32.1875 -19.796875 32.453125 -16.671875 32.671875 -13.734375 C 32.898438 -10.804688 33.078125 -8.273438 33.203125 -6.140625 C 33.335938 -4.015625 33.40625 -2.550781 33.40625 -1.75 L 33.40625 -1.140625 C 33.351562 -0.785156 32.769531 -0.46875 31.65625 -0.1875 C 30.539062 0.09375 29.328125 0.234375 28.015625 0.234375 C 26.742188 0.234375 25.578125 0.03125 24.515625 -0.375 C 23.453125 -0.78125 22.894531 -1.539062 22.84375 -2.65625 L 22.546875 -11.84375 C 21.941406 -11.738281 21.332031 -11.648438 20.71875 -11.578125 C 20.113281 -11.503906 19.507812 -11.46875 18.90625 -11.46875 C 18.394531 -11.46875 17.875 -11.488281 17.34375 -11.53125 C 16.8125 -11.582031 16.289062 -11.6875 15.78125 -11.84375 L 15.328125 -2.65625 C 15.273438 -1.539062 14.753906 -0.769531 13.765625 -0.34375 C 12.785156 0.0820312 11.6875 0.296875 10.46875 0.296875 Z M 18.984375 -20.875 L 20.796875 -20.953125 C 21.046875 -21.003906 21.222656 -21.050781 21.328125 -21.09375 C 21.429688 -21.144531 21.484375 -21.453125 21.484375 -22.015625 C 21.484375 -22.566406 21.429688 -23.488281 21.328125 -24.78125 C 21.222656 -26.070312 21.070312 -27.929688 20.875 -30.359375 C 20.363281 -38.253906 19.734375 -42.203125 18.984375 -42.203125 C 18.316406 -42.203125 17.679688 -38.253906 17.078125 -30.359375 C 16.921875 -27.984375 16.789062 -26.148438 16.6875 -24.859375 C 16.59375 -23.566406 16.546875 -22.644531 16.546875 -22.09375 C 16.546875 -21.476562 16.609375 -21.144531 16.734375 -21.09375 C 16.859375 -21.050781 17.023438 -21.003906 17.234375 -20.953125 Z M 18.984375 -20.875 "/></g></g></g><g fill="#ffffff" fill-opacity="1"><g transform="translate(306.521429, 216.659725)"><g><path d="M 14.953125 0.078125 C 13.785156 0.078125 12.695312 -0.0195312 11.6875 -0.21875 C 10.675781 -0.425781 10.117188 -0.757812 10.015625 -1.21875 C 9.960938 -1.570312 9.898438 -2.707031 9.828125 -4.625 C 9.753906 -6.550781 9.675781 -8.992188 9.59375 -11.953125 C 9.519531 -14.910156 9.46875 -18.132812 9.4375 -21.625 C 9.414062 -25.125 9.40625 -28.566406 9.40625 -31.953125 C 9.40625 -34.023438 9.40625 -36.007812 9.40625 -37.90625 C 9.40625 -39.8125 9.429688 -41.570312 9.484375 -43.1875 C 7.253906 -43.1875 5.289062 -43.222656 3.59375 -43.296875 C 1.90625 -43.378906 0.785156 -43.519531 0.234375 -43.71875 C 0.128906 -43.769531 0.0234375 -44.1875 -0.078125 -44.96875 C -0.179688 -45.757812 -0.234375 -46.660156 -0.234375 -47.671875 C -0.234375 -48.984375 -0.117188 -50.222656 0.109375 -51.390625 C 0.335938 -52.554688 0.753906 -53.160156 1.359375 -53.203125 L 2.28125 -53.203125 C 3.894531 -53.203125 6.347656 -53.164062 9.640625 -53.09375 C 12.929688 -53.019531 16.375 -52.984375 19.96875 -52.984375 C 21.4375 -52.984375 22.890625 -52.992188 24.328125 -53.015625 C 25.765625 -53.046875 27.144531 -53.085938 28.46875 -53.140625 C 28.875 -53.140625 29.175781 -52.679688 29.375 -51.765625 C 29.570312 -50.859375 29.671875 -49.820312 29.671875 -48.65625 C 29.671875 -47.539062 29.570312 -46.476562 29.375 -45.46875 C 29.175781 -44.457031 28.820312 -43.898438 28.3125 -43.796875 C 27.90625 -43.691406 26.867188 -43.601562 25.203125 -43.53125 C 23.535156 -43.457031 21.585938 -43.367188 19.359375 -43.265625 L 19.203125 -24.21875 C 19.203125 -20.726562 19.226562 -17.363281 19.28125 -14.125 C 19.332031 -10.882812 19.421875 -8.113281 19.546875 -5.8125 C 19.671875 -3.507812 19.835938 -1.976562 20.046875 -1.21875 L 20.046875 -1.140625 C 20.046875 -0.785156 19.523438 -0.492188 18.484375 -0.265625 C 17.441406 -0.0351562 16.265625 0.078125 14.953125 0.078125 Z M 14.953125 0.078125 "/></g></g></g><g fill="#ffffff" fill-opacity="1"><g transform="translate(336.197562, 216.659725)"><g><path d="M 12.375 0.234375 C 11.101562 0.234375 9.925781 0.132812 8.84375 -0.0625 C 7.757812 -0.269531 7.164062 -0.601562 7.0625 -1.0625 C 6.957031 -1.414062 6.867188 -2.601562 6.796875 -4.625 C 6.722656 -6.65625 6.644531 -9.210938 6.5625 -12.296875 C 6.488281 -15.378906 6.4375 -18.703125 6.40625 -22.265625 C 6.382812 -25.835938 6.375 -29.375 6.375 -32.875 L 6.453125 -42.8125 C 5.941406 -42.914062 5.507812 -42.988281 5.15625 -43.03125 C 4.800781 -43.082031 4.5 -43.132812 4.25 -43.1875 C 4.144531 -43.238281 4.039062 -43.65625 3.9375 -44.4375 C 3.84375 -45.226562 3.796875 -46.128906 3.796875 -47.140625 C 3.796875 -48.453125 3.910156 -49.691406 4.140625 -50.859375 C 4.367188 -52.023438 4.785156 -52.609375 5.390625 -52.609375 C 6.648438 -52.648438 8.28125 -52.671875 10.28125 -52.671875 C 12.28125 -52.671875 14.414062 -52.679688 16.6875 -52.703125 C 18.96875 -52.734375 21.144531 -52.773438 23.21875 -52.828125 C 25.300781 -52.878906 27.0625 -52.929688 28.5 -52.984375 C 29.945312 -53.035156 30.796875 -53.085938 31.046875 -53.140625 L 31.125 -53.140625 C 31.53125 -53.140625 31.832031 -52.59375 32.03125 -51.5 C 32.238281 -50.414062 32.34375 -49.210938 32.34375 -47.890625 C 32.34375 -46.734375 32.253906 -45.671875 32.078125 -44.703125 C 31.898438 -43.742188 31.582031 -43.210938 31.125 -43.109375 C 31.019531 -43.109375 30.21875 -43.070312 28.71875 -43 C 27.226562 -42.925781 25.382812 -42.863281 23.1875 -42.8125 C 20.988281 -42.757812 18.722656 -42.707031 16.390625 -42.65625 L 16.25 -31.046875 C 18.570312 -31.097656 20.503906 -31.144531 22.046875 -31.1875 C 23.585938 -31.238281 24.460938 -31.289062 24.671875 -31.34375 L 24.75 -31.34375 C 25.15625 -31.34375 25.457031 -30.8125 25.65625 -29.75 C 25.851562 -28.6875 25.953125 -27.523438 25.953125 -26.265625 C 25.953125 -25.097656 25.851562 -24.007812 25.65625 -23 C 25.457031 -21.988281 25.128906 -21.429688 24.671875 -21.328125 C 24.617188 -21.273438 23.804688 -21.222656 22.234375 -21.171875 C 20.671875 -21.128906 18.675781 -21.082031 16.25 -21.03125 C 16.25 -19 16.257812 -17.046875 16.28125 -15.171875 C 16.300781 -13.304688 16.335938 -11.5625 16.390625 -9.9375 C 18.921875 -9.988281 21.234375 -10.023438 23.328125 -10.046875 C 25.429688 -10.078125 27.15625 -10.117188 28.5 -10.171875 C 29.84375 -10.222656 30.613281 -10.273438 30.8125 -10.328125 L 30.890625 -10.328125 C 31.296875 -10.328125 31.597656 -9.796875 31.796875 -8.734375 C 32.003906 -7.671875 32.109375 -6.503906 32.109375 -5.234375 C 32.109375 -4.066406 32.003906 -2.976562 31.796875 -1.96875 C 31.597656 -0.957031 31.269531 -0.398438 30.8125 -0.296875 C 30.71875 -0.296875 29.785156 -0.257812 28.015625 -0.1875 C 26.242188 -0.113281 23.976562 -0.0390625 21.21875 0.03125 C 18.457031 0.113281 15.507812 0.179688 12.375 0.234375 Z M 12.375 0.234375 "/></g></g></g><g fill="#ffffff" fill-opacity="1"><g transform="translate(159.209817, 235.358509)"><g><path d="M 7.25 -7.296875 L 4.015625 0 L 3.265625 0 L 0.03125 -7.296875 L 0.859375 -7.296875 L 3.65625 -0.953125 L 6.46875 -7.296875 Z M 7.25 -7.296875 "/></g></g></g><g fill="#ffffff" fill-opacity="1"><g transform="translate(169.192466, 235.358509)"><g><path d="M 6.34375 -0.671875 L 6.34375 0 L 1.1875 0 L 1.1875 -7.296875 L 6.1875 -7.296875 L 6.1875 -6.625 L 1.953125 -6.625 L 1.953125 -4.03125 L 5.734375 -4.03125 L 5.734375 -3.375 L 1.953125 -3.375 L 1.953125 -0.671875 Z M 6.34375 -0.671875 "/></g></g></g><g fill="#ffffff" fill-opacity="1"><g transform="translate(178.873335, 235.358509)"><g><path d="M 2.609375 -6.625 L 0.046875 -6.625 L 0.046875 -7.296875 L 5.9375 -7.296875 L 5.9375 -6.625 L 3.375 -6.625 L 3.375 0 L 2.609375 0 Z M 2.609375 -6.625 "/></g></g></g><g fill="#ffffff" fill-opacity="1"><g transform="translate(187.565605, 235.358509)"><g><path d="M 6.34375 -0.671875 L 6.34375 0 L 1.1875 0 L 1.1875 -7.296875 L 6.1875 -7.296875 L 6.1875 -6.625 L 1.953125 -6.625 L 1.953125 -4.03125 L 5.734375 -4.03125 L 5.734375 -3.375 L 1.953125 -3.375 L 1.953125 -0.671875 Z M 6.34375 -0.671875 "/></g></g></g><g fill="#ffffff" fill-opacity="1"><g transform="translate(197.246474, 235.358509)"><g><path d="M 6.171875 0 L 4.5 -2.34375 C 4.3125 -2.320312 4.117188 -2.3125 3.921875 -2.3125 L 1.953125 -2.3125 L 1.953125 0 L 1.1875 0 L 1.1875 -7.296875 L 3.921875 -7.296875 C 4.847656 -7.296875 5.578125 -7.070312 6.109375 -6.625 C 6.640625 -6.1875 6.90625 -5.578125 6.90625 -4.796875 C 6.90625 -4.222656 6.757812 -3.738281 6.46875 -3.34375 C 6.175781 -2.957031 5.765625 -2.675781 5.234375 -2.5 L 7.015625 0 Z M 3.890625 -2.96875 C 4.617188 -2.96875 5.171875 -3.125 5.546875 -3.4375 C 5.929688 -3.757812 6.125 -4.210938 6.125 -4.796875 C 6.125 -5.390625 5.929688 -5.84375 5.546875 -6.15625 C 5.171875 -6.46875 4.617188 -6.625 3.890625 -6.625 L 1.953125 -6.625 L 1.953125 -2.96875 Z M 3.890625 -2.96875 "/></g></g></g><g fill="#ffffff" fill-opacity="1"><g transform="translate(207.489279, 235.358509)"><g><path d="M 1.1875 -7.296875 L 1.953125 -7.296875 L 1.953125 0 L 1.1875 0 Z M 1.1875 -7.296875 "/></g></g></g><g fill="#ffffff" fill-opacity="1"><g transform="translate(213.351045, 235.358509)"><g><path d="M 7.28125 -7.296875 L 7.28125 0 L 6.65625 0 L 1.953125 -5.921875 L 1.953125 0 L 1.1875 0 L 1.1875 -7.296875 L 1.828125 -7.296875 L 6.53125 -1.375 L 6.53125 -7.296875 Z M 7.28125 -7.296875 "/></g></g></g><g fill="#ffffff" fill-opacity="1"><g transform="translate(224.530412, 235.358509)"><g><path d="M 5.765625 -1.953125 L 1.703125 -1.953125 L 0.828125 0 L 0.015625 0 L 3.359375 -7.296875 L 4.109375 -7.296875 L 7.453125 0 L 6.640625 0 Z M 5.484375 -2.578125 L 3.734375 -6.5 L 1.984375 -2.578125 Z M 5.484375 -2.578125 "/></g></g></g><g fill="#ffffff" fill-opacity="1"><g transform="translate(234.710777, 235.358509)"><g><path d="M 6.171875 0 L 4.5 -2.34375 C 4.3125 -2.320312 4.117188 -2.3125 3.921875 -2.3125 L 1.953125 -2.3125 L 1.953125 0 L 1.1875 0 L 1.1875 -7.296875 L 3.921875 -7.296875 C 4.847656 -7.296875 5.578125 -7.070312 6.109375 -6.625 C 6.640625 -6.1875 6.90625 -5.578125 6.90625 -4.796875 C 6.90625 -4.222656 6.757812 -3.738281 6.46875 -3.34375 C 6.175781 -2.957031 5.765625 -2.675781 5.234375 -2.5 L 7.015625 0 Z M 3.890625 -2.96875 C 4.617188 -2.96875 5.171875 -3.125 5.546875 -3.4375 C 5.929688 -3.757812 6.125 -4.210938 6.125 -4.796875 C 6.125 -5.390625 5.929688 -5.84375 5.546875 -6.15625 C 5.171875 -6.46875 4.617188 -6.625 3.890625 -6.625 L 1.953125 -6.625 L 1.953125 -2.96875 Z M 3.890625 -2.96875 "/></g></g></g><g fill="#ffffff" fill-opacity="1"><g transform="translate(244.953582, 235.358509)"><g><path d="M 3.6875 -2.515625 L 3.6875 0 L 2.921875 0 L 2.921875 -2.515625 L 0.015625 -7.296875 L 0.828125 -7.296875 L 3.328125 -3.203125 L 5.84375 -7.296875 L 6.609375 -7.296875 Z M 3.6875 -2.515625 "/></g></g></g><g fill="#ffffff" fill-opacity="1"><g transform="translate(254.280631, 235.358509)"><g/></g></g><g fill="#ffffff" fill-opacity="1"><g transform="translate(259.726153, 235.358509)"><g><path d="M 4.359375 0.0625 C 3.628906 0.0625 2.972656 -0.09375 2.390625 -0.40625 C 1.816406 -0.726562 1.363281 -1.171875 1.03125 -1.734375 C 0.707031 -2.304688 0.546875 -2.941406 0.546875 -3.640625 C 0.546875 -4.347656 0.707031 -4.984375 1.03125 -5.546875 C 1.363281 -6.117188 1.820312 -6.5625 2.40625 -6.875 C 2.988281 -7.195312 3.640625 -7.359375 4.359375 -7.359375 C 4.910156 -7.359375 5.414062 -7.265625 5.875 -7.078125 C 6.332031 -6.898438 6.71875 -6.640625 7.03125 -6.296875 L 6.546875 -5.8125 C 5.972656 -6.382812 5.253906 -6.671875 4.390625 -6.671875 C 3.804688 -6.671875 3.28125 -6.535156 2.8125 -6.265625 C 2.34375 -6.003906 1.972656 -5.644531 1.703125 -5.1875 C 1.429688 -4.726562 1.296875 -4.210938 1.296875 -3.640625 C 1.296875 -3.078125 1.429688 -2.566406 1.703125 -2.109375 C 1.972656 -1.648438 2.34375 -1.285156 2.8125 -1.015625 C 3.28125 -0.753906 3.804688 -0.625 4.390625 -0.625 C 5.265625 -0.625 5.984375 -0.914062 6.546875 -1.5 L 7.03125 -1.015625 C 6.71875 -0.660156 6.328125 -0.390625 5.859375 -0.203125 C 5.398438 -0.0234375 4.898438 0.0625 4.359375 0.0625 Z M 4.359375 0.0625 "/></g></g></g><g fill="#ffffff" fill-opacity="1"><g transform="translate(269.927336, 235.358509)"><g><path d="M 1.1875 -7.296875 L 1.953125 -7.296875 L 1.953125 -0.671875 L 6.046875 -0.671875 L 6.046875 0 L 1.1875 0 Z M 1.1875 -7.296875 "/></g></g></g><g fill="#ffffff" fill-opacity="1"><g transform="translate(278.775701, 235.358509)"><g><path d="M 1.1875 -7.296875 L 1.953125 -7.296875 L 1.953125 0 L 1.1875 0 Z M 1.1875 -7.296875 "/></g></g></g><g fill="#ffffff" fill-opacity="1"><g transform="translate(284.637467, 235.358509)"><g><path d="M 7.28125 -7.296875 L 7.28125 0 L 6.65625 0 L 1.953125 -5.921875 L 1.953125 0 L 1.1875 0 L 1.1875 -7.296875 L 1.828125 -7.296875 L 6.53125 -1.375 L 6.53125 -7.296875 Z M 7.28125 -7.296875 "/></g></g></g><g fill="#ffffff" fill-opacity="1"><g transform="translate(295.816834, 235.358509)"><g><path d="M 1.1875 -7.296875 L 1.953125 -7.296875 L 1.953125 0 L 1.1875 0 Z M 1.1875 -7.296875 "/></g></g></g><g fill="#ffffff" fill-opacity="1"><g transform="translate(301.6786, 235.358509)"><g><path d="M 4.359375 0.0625 C 3.628906 0.0625 2.972656 -0.09375 2.390625 -0.40625 C 1.816406 -0.726562 1.363281 -1.171875 1.03125 -1.734375 C 0.707031 -2.304688 0.546875 -2.941406 0.546875 -3.640625 C 0.546875 -4.347656 0.707031 -4.984375 1.03125 -5.546875 C 1.363281 -6.117188 1.820312 -6.5625 2.40625 -6.875 C 2.988281 -7.195312 3.640625 -7.359375 4.359375 -7.359375 C 4.910156 -7.359375 5.414062 -7.265625 5.875 -7.078125 C 6.332031 -6.898438 6.71875 -6.640625 7.03125 -6.296875 L 6.546875 -5.8125 C 5.972656 -6.382812 5.253906 -6.671875 4.390625 -6.671875 C 3.804688 -6.671875 3.28125 -6.535156 2.8125 -6.265625 C 2.34375 -6.003906 1.972656 -5.644531 1.703125 -5.1875 C 1.429688 -4.726562 1.296875 -4.210938 1.296875 -3.640625 C 1.296875 -3.078125 1.429688 -2.566406 1.703125 -2.109375 C 1.972656 -1.648438 2.34375 -1.285156 2.8125 -1.015625 C 3.28125 -0.753906 3.804688 -0.625 4.390625 -0.625 C 5.265625 -0.625 5.984375 -0.914062 6.546875 -1.5 L 7.03125 -1.015625 C 6.71875 -0.660156 6.328125 -0.390625 5.859375 -0.203125 C 5.398438 -0.0234375 4.898438 0.0625 4.359375 0.0625 Z M 4.359375 0.0625 "/></g></g></g></svg>